<?xml version="1.0" encoding="UTF-8"?>
<svg version="1.1" xmlns="http://www.w3.org/2000/svg" width="180" height="180">
<path d="M0 0 C59.4 0 118.8 0 180 0 C180 59.4 180 118.8 180 180 C120.6 180 61.2 180 0 180 C0 120.6 0 61.2 0 0 Z " fill="#FDFDFB" transform="translate(0,0)"/>
<path d="M0 0 C1.53315987 1.17154219 3.05552158 2.35746626 4.5625 3.5625 C5.13613281 3.97371094 5.70976563 4.38492188 6.30078125 4.80859375 C13.30017528 10.03553141 17.72263081 18.12169659 19.5625 26.5625 C19.5625 27.8825 19.5625 29.2025 19.5625 30.5625 C20.2225 30.5625 20.8825 30.5625 21.5625 30.5625 C21.5625 37.1625 21.5625 43.7625 21.5625 50.5625 C20.9025 50.5625 20.2425 50.5625 19.5625 50.5625 C19.2325 53.5325 18.9025 56.5025 18.5625 59.5625 C19.30113281 59.52769531 20.03976563 59.49289063 20.80078125 59.45703125 C30.9061037 59.18738478 38.98361518 59.92851121 46.875 66.6875 C54.70312515 74.3411128 58.61073312 80.6131777 58.80322266 91.64257812 C58.85657621 104.48112853 58.85657621 104.48112853 55.5625 110.5625 C54.5725 111.0575 54.5725 111.0575 53.5625 111.5625 C53.2325 112.5525 52.9025 113.5425 52.5625 114.5625 C51.9025 114.5625 51.2425 114.5625 50.5625 114.5625 C50.5625 115.2225 50.5625 115.8825 50.5625 116.5625 C49.9025 116.5625 49.2425 116.5625 48.5625 116.5625 C48.5625 117.2225 48.5625 117.8825 48.5625 118.5625 C47.9025 118.5625 47.2425 118.5625 46.5625 118.5625 C46.5625 119.2225 46.5625 119.8825 46.5625 120.5625 C45.5725 120.5625 44.5825 120.5625 43.5625 120.5625 C43.2325 121.5525 42.9025 122.5425 42.5625 123.5625 C35.94770845 126.87866281 29.9141404 126.99652918 22.61376953 126.96655273 C21.43872864 126.97341599 20.26368774 126.98027924 19.05303955 126.98735046 C15.18367293 127.00559371 11.31471275 127.00178402 7.4453125 126.99609375 C5.42836212 126.99857231 3.41142159 127.00292002 1.39447486 127.00744683 C-4.94230211 127.02146184 -11.27894419 127.01995664 -17.61572266 127.00854492 C-24.13009705 126.99707185 -30.64405934 127.01113225 -37.15837944 127.0379414 C-42.77226797 127.06017087 -48.38602783 127.0667194 -53.9999572 127.06086498 C-57.34373616 127.05751073 -60.68704131 127.06153948 -64.03081894 127.07711601 C-67.76418101 127.09205692 -71.49664573 127.08132428 -75.22998047 127.06420898 C-76.86838394 127.07871094 -76.86838394 127.07871094 -78.53988647 127.09350586 C-89.03852842 126.99314243 -97.69029086 123.75118941 -105.4375 116.5625 C-107.6875 113.75 -107.6875 113.75 -109.4375 110.5625 C-109.80875 109.95148438 -110.18 109.34046875 -110.5625 108.7109375 C-114.88303514 100.69994526 -114.75012375 91.58167196 -112.484375 82.91796875 C-109.81445818 75.52500288 -107.18641781 69.76774577 -100.25 65.6875 C-97.4375 64.5625 -97.4375 64.5625 -95.4375 64.5625 C-95.4375 63.9025 -95.4375 63.2425 -95.4375 62.5625 C-88.52465353 58.51595572 -81.17925497 59.29348149 -73.4375 59.5625 C-73.6540625 58.8096875 -73.870625 58.056875 -74.09375 57.28125 C-77.72007302 43.44749921 -78.45904806 30.45229836 -71.4375 17.5625 C-69.02232587 13.96500214 -66.36332374 10.75328273 -63.4375 7.5625 C-62.60412109 6.59183594 -62.60412109 6.59183594 -61.75390625 5.6015625 C-46.58490912 -11.0588708 -18.13232773 -12.32137404 0 0 Z " fill="#DFDFDF" transform="translate(117.4375,49.4375)"/>
<path d="M0 0 C1.53315987 1.17154219 3.05552158 2.35746626 4.5625 3.5625 C5.13613281 3.97371094 5.70976563 4.38492188 6.30078125 4.80859375 C13.30017528 10.03553141 17.72263081 18.12169659 19.5625 26.5625 C19.5625 27.8825 19.5625 29.2025 19.5625 30.5625 C20.2225 30.5625 20.8825 30.5625 21.5625 30.5625 C21.5625 37.1625 21.5625 43.7625 21.5625 50.5625 C20.9025 50.5625 20.2425 50.5625 19.5625 50.5625 C19.4696875 52.1403125 19.4696875 52.1403125 19.375 53.75 C18.41665783 58.24683633 17.17395128 59.79092111 13.5625 62.5625 C12.2425 62.5625 10.9225 62.5625 9.5625 62.5625 C8.61848958 60.8046875 7.67447917 59.046875 6.73046875 57.2890625 C5.51486507 55.25747635 5.51486507 55.25747635 2.5625 53.5625 C2.5625 52.5725 2.5625 51.5825 2.5625 50.5625 C0.9125 49.9025 -0.7375 49.2425 -2.4375 48.5625 C-2.4375 47.9025 -2.4375 47.2425 -2.4375 46.5625 C-3.9225 46.0675 -3.9225 46.0675 -5.4375 45.5625 C-5.4375 44.9025 -5.4375 44.2425 -5.4375 43.5625 C-8.0775 42.9025 -10.7175 42.2425 -13.4375 41.5625 C-13.4375 40.9025 -13.4375 40.2425 -13.4375 39.5625 C-19.44349774 38.7015246 -25.31002436 38.34945339 -31.375 38.3125 C-32.21740234 38.291875 -33.05980469 38.27125 -33.92773438 38.25 C-39.26305621 38.21714197 -43.55037149 38.97740787 -48.52954102 40.91503906 C-50.4375 41.5625 -50.4375 41.5625 -53.4375 41.5625 C-53.7675 42.5525 -54.0975 43.5425 -54.4375 44.5625 C-56.09598177 45.57601664 -57.76415961 46.57370795 -59.4375 47.5625 C-63.1175382 50.96653533 -66.27994987 54.68322413 -69.4375 58.5625 C-70.7575 58.2325 -72.0775 57.9025 -73.4375 57.5625 C-74.11008667 55.23086622 -74.77597444 52.8972961 -75.4375 50.5625 C-75.61667969 49.97855469 -75.79585937 49.39460938 -75.98046875 48.79296875 C-78.19513921 37.98461974 -76.70036998 27.22380722 -71.4375 17.5625 C-69.02232587 13.96500214 -66.36332374 10.75328273 -63.4375 7.5625 C-62.88191406 6.91539063 -62.32632813 6.26828125 -61.75390625 5.6015625 C-46.58490912 -11.0588708 -18.13232773 -12.32137404 0 0 Z " fill="#ECD157" transform="translate(117.4375,49.4375)"/>
<path d="M0 0 C1.95803507 -0.05389087 3.91648909 -0.09274217 5.875 -0.125 C7.51082031 -0.15980469 7.51082031 -0.15980469 9.1796875 -0.1953125 C12 0 12 0 14 2 C13.75 4.5625 13.75 4.5625 13 7 C10.37670316 8.31164842 8.36301375 8.13262846 5.4375 8.125 C4.44621094 8.12757812 3.45492188 8.13015625 2.43359375 8.1328125 C0 8 0 8 -1 7 C-0.71269945 4.66055264 -0.38063221 2.3260857 0 0 Z " fill="#E8D894" transform="translate(5,86)"/>
<path d="M0 0 C1 2 1 2 0.1875 5.5 C-1 9 -1 9 -3 11 C-4.73537555 16.00012884 -5.34519362 20.66781309 -5.625 25.9375 C-5.66367187 26.62134766 -5.70234375 27.30519531 -5.7421875 28.00976562 C-5.83522412 29.67279513 -5.91863787 31.33635847 -6 33 C-5.34 33 -4.68 33 -4 33 C-3.67 36.3 -3.34 39.6 -3 43 C-1.68 42.34 -0.36 41.68 1 41 C0.34 42.32 -0.32 43.64 -1 45 C-2.32 44.67 -3.64 44.34 -5 44 C-5.67258667 41.66836622 -6.33847444 39.3347961 -7 37 C-7.17917969 36.41605469 -7.35835937 35.83210938 -7.54296875 35.23046875 C-9.77699463 24.3276587 -8.10228973 13.83089063 -3 4 C-2.0378885 2.63907413 -1.05052372 1.29390018 0 0 Z " fill="#EADC93" transform="translate(49,63)"/>
<path d="M0 0 C4.55555556 0.55555556 4.55555556 0.55555556 6 2 C6.12494616 3.62139437 6.17571624 5.24884122 6.1875 6.875 C6.20167969 7.75929688 6.21585938 8.64359375 6.23046875 9.5546875 C6 12 6 12 4 15 C-0.875 14.125 -0.875 14.125 -2 13 C-2.12487758 11.19072719 -2.17570846 9.37603893 -2.1875 7.5625 C-2.20167969 6.57378906 -2.21585937 5.58507812 -2.23046875 4.56640625 C-2 2 -2 2 0 0 Z " fill="#E7D793" transform="translate(88,4)"/>
<path d="M0 0 C1.2065625 0.0309375 1.2065625 0.0309375 2.4375 0.0625 C2.685 0.68125 2.9325 1.3 3.1875 1.9375 C4.64378639 4.41318687 5.81562506 5.01375002 8.4375 6.0625 C8.4375 8.0425 8.4375 10.0225 8.4375 12.0625 C6.703125 12.7578125 6.703125 12.7578125 4.4375 13.0625 C2.296875 11.8046875 2.296875 11.8046875 0.1875 9.9375 C-0.51890625 9.33679687 -1.2253125 8.73609375 -1.953125 8.1171875 C-3.5625 6.0625 -3.5625 6.0625 -3.859375 3.3828125 C-3.44310744 0.1293529 -3.3150602 0.08085513 0 0 Z " fill="#E8D368" transform="translate(31.5625,27.9375)"/>
<path d="M0 0 C1.08410156 -0.00257812 2.16820312 -0.00515625 3.28515625 -0.0078125 C5.9375 0.125 5.9375 0.125 6.9375 1.125 C7.0625 3.625 7.0625 3.625 6.9375 6.125 C5.9375 7.125 5.9375 7.125 3.28515625 7.2578125 C2.20105469 7.25523438 1.11695313 7.25265625 0 7.25 C-1.62228516 7.25386719 -1.62228516 7.25386719 -3.27734375 7.2578125 C-6.0625 7.125 -6.0625 7.125 -8.0625 6.125 C-8.0625 4.475 -8.0625 2.825 -8.0625 1.125 C-5.31744537 -0.24752731 -3.05922588 -0.00729255 0 0 Z " fill="#E3D37E" transform="translate(169.0625,86.875)"/>
<path d="M0 0 C1.24458984 -0.00128906 2.48917969 -0.00257812 3.77148438 -0.00390625 C5.07279297 -0.00003906 6.37410156 0.00382812 7.71484375 0.0078125 C9.02001953 0.00394531 10.32519531 0.00007813 11.66992188 -0.00390625 C13.53487305 -0.00197266 13.53487305 -0.00197266 15.4375 0 C16.580979 0.00112793 17.72445801 0.00225586 18.90258789 0.00341797 C21.65234375 0.1328125 21.65234375 0.1328125 23.65234375 1.1328125 C23.65234375 1.7928125 23.65234375 2.4528125 23.65234375 3.1328125 C24.64234375 3.4628125 25.63234375 3.7928125 26.65234375 4.1328125 C26.65234375 4.7928125 26.65234375 5.4528125 26.65234375 6.1328125 C27.97234375 6.1328125 29.29234375 6.1328125 30.65234375 6.1328125 C30.65234375 6.7928125 30.65234375 7.4528125 30.65234375 8.1328125 C28.01234375 7.4728125 25.37234375 6.8128125 22.65234375 6.1328125 C22.65234375 5.4728125 22.65234375 4.8128125 22.65234375 4.1328125 C15.79250566 3.07553163 9.08451151 3.01641407 2.15234375 3.0703125 C0.48945312 3.07708008 0.48945312 3.07708008 -1.20703125 3.08398438 C-3.92063024 3.09568092 -6.63411386 3.11207164 -9.34765625 3.1328125 C-9.34765625 2.4728125 -9.34765625 1.8128125 -9.34765625 1.1328125 C-6.01815625 0.02297917 -3.50606982 0.00345499 0 0 Z " fill="#E3D27C" transform="translate(81.34765625,84.8671875)"/>
<path d="M0 0 C0.763125 0.20625 1.52625 0.4125 2.3125 0.625 C2.78926838 3.32668747 2.74076678 5.00927638 1.15234375 7.29296875 C-1.33756616 9.97392034 -2.81424939 11.48916102 -6.5 12.0625 C-8.6875 11.625 -8.6875 11.625 -9.6875 10.625 C-9.72813832 8.95882885 -9.730221 7.29111905 -9.6875 5.625 C-8.3675 4.965 -7.0475 4.305 -5.6875 3.625 C-5.6875 2.965 -5.6875 2.305 -5.6875 1.625 C-2.6875 -0.375 -2.6875 -0.375 0 0 Z " fill="#E2D272" transform="translate(149.6875,28.375)"/>
<path d="M0 0 C3 1 3 1 3.91845703 2.57861328 C6.29358863 9.61634089 6.65261274 16.48856596 6.875 23.875 C6.93429688 25.09703125 6.99359375 26.3190625 7.0546875 27.578125 C7.0959375 28.74601562 7.1371875 29.91390625 7.1796875 31.1171875 C7.21819824 32.17534668 7.25670898 33.23350586 7.29638672 34.32373047 C7 37 7 37 5.61376953 38.86767578 C4 40 4 40 2 40 C2.33 37.03 2.66 34.06 3 31 C3.66 31 4.32 31 5 31 C5 24.4 5 17.8 5 11 C4.34 11 3.68 11 3 11 C2.01 7.37 1.02 3.74 0 0 Z " fill="#FDF9D8" transform="translate(134,69)"/>
<path d="M0 0 C0.86297633 2.40982068 1.15891877 3.58792922 0.22265625 6.015625 C-0.16019531 6.75296875 -0.54304688 7.4903125 -0.9375 8.25 C-5.11615291 18.02428847 -3.66695157 29.95513133 -1 40 C-0.66666667 41.33333333 -0.33333333 42.66666667 0 44 C-4.59190097 40.24299012 -5.23589955 34.59687251 -6 29 C-6.15891779 26.08197663 -6.18499409 23.17188795 -6.1875 20.25 C-6.19974609 19.48300781 -6.21199219 18.71601562 -6.22460938 17.92578125 C-6.22982029 15.94910929 -6.12278359 13.97286173 -6 12 C-5.34 11.34 -4.68 10.68 -4 10 C-3.855625 8.865625 -3.71125 7.73125 -3.5625 6.5625 C-3.00818778 3.05185595 -2.76686876 2.04507691 0 0 Z " fill="#FEFBE0" transform="translate(45,66)"/>
<path d="M0 0 C0 0.33 0 0.66 0 1 C-1.75376953 1.05607422 -1.75376953 1.05607422 -3.54296875 1.11328125 C-5.09117675 1.1789628 -6.63935242 1.24540939 -8.1875 1.3125 C-8.95642578 1.33505859 -9.72535156 1.35761719 -10.51757812 1.38085938 C-15.23011444 1.60333963 -18.02397489 2.27956176 -22 5 C-24.24609375 5.66015625 -24.24609375 5.66015625 -26.4375 6.0625 C-30.07364693 6.78608108 -33.50358606 7.74487705 -37 9 C-36 7 -36 7 -33 6 C-32.67 5.34 -32.34 4.68 -32 4 C-21.94906724 -1.32679996 -11.00547725 -0.39149919 0 0 Z " fill="#EBDEBE" transform="translate(96,87)"/>
<path d="M0 0 C0.99 0.495 0.99 0.495 2 1 C1.855625 1.70125 1.71125 2.4025 1.5625 3.125 C2.1691984 7.11187518 4.16720974 8.35929197 7.17578125 10.86328125 C9.06612343 12.26442747 9.06612343 12.26442747 12 12 C12.41890218 9.21061788 12.41890218 9.21061788 12 6 C9.62499209 3.12359384 9.62499209 3.12359384 7 1 C8.32 0.67 9.64 0.34 11 0 C11 0.99 11 1.98 11 3 C11.99 3.33 12.98 3.66 14 4 C14.9765625 10.0546875 14.9765625 10.0546875 15 12 C14.34 12.66 13.68 13.32 13 14 C7.66609128 13.79484966 3.85939459 12.76526302 0 9 C-0.50160942 5.93754246 -0.35463726 3.07352289 0 0 Z " fill="#FEF9D6" transform="translate(27,28)"/>
<path d="M0 0 C0.66 0 1.32 0 2 0 C2.33 0.99 2.66 1.98 3 3 C3.639375 3.433125 4.27875 3.86625 4.9375 4.3125 C7.64894713 6.53095674 8.11325118 8.67469194 9 12 C12.77545388 10.90931332 15.47043472 10.0916909 18 7 C18.042721 8.66611905 18.04063832 10.33382885 18 12 C17 13 17 13 14.78515625 13.1328125 C13.88667969 13.13023438 12.98820313 13.12765625 12.0625 13.125 C11.16660156 13.12757812 10.27070313 13.13015625 9.34765625 13.1328125 C7 13 7 13 5 12 C5 10.02 5 8.04 5 6 C3.68 6.33 2.36 6.66 1 7 C0.67 4.69 0.34 2.38 0 0 Z " fill="#E9DDBF" transform="translate(118,100)"/>
<path d="M0 0 C7.95941104 3.99813008 14.77699317 8.67817754 20 16 C19.67 16.66 19.34 17.32 19 18 C17.32756598 16.71580959 15.66218553 15.42242815 14 14.125 C13.071875 13.40570313 12.14375 12.68640625 11.1875 11.9453125 C10.465625 11.30335937 9.74375 10.66140625 9 10 C9 9.34 9 8.68 9 8 C8.38125 7.9175 7.7625 7.835 7.125 7.75 C5 7 5 7 3.9375 5 C3.628125 4.34 3.31875 3.68 3 3 C2.01 2.67 1.02 2.34 0 2 C0 1.34 0 0.68 0 0 Z " fill="#E6D074" transform="translate(111,46)"/>
<path d="M0 0 C0.33 0 0.66 0 1 0 C1 6.6 1 13.2 1 20 C0.34 20 -0.32 20 -1 20 C-1.061875 21.051875 -1.12375 22.10375 -1.1875 23.1875 C-2.14584217 27.68433633 -3.38854872 29.22842111 -7 32 C-8.32 32 -9.64 32 -11 32 C-11.33 31.01 -11.66 30.02 -12 29 C-10.906875 28.855625 -9.81375 28.71125 -8.6875 28.5625 C-6.71531062 28.12436235 -6.71531062 28.12436235 -5 27 C-3.47156347 24.11705247 -2.68691621 21.17944076 -2 18 C-1.34 18 -0.68 18 0 18 C0 12.06 0 6.12 0 0 Z " fill="#E7D583" transform="translate(138,80)"/>
<path d="M0 0 C0.66 0 1.32 0 2 0 C2.1875 2.375 2.1875 2.375 2 5 C1.01 5.66 0.02 6.32 -1 7 C-1 8.32 -1 9.64 -1 11 C0.65 11.33 2.3 11.66 4 12 C4 12.33 4 12.66 4 13 C1.69 13 -0.62 13 -3 13 C-3.268125 12.38125 -3.53625 11.7625 -3.8125 11.125 C-4.95556848 8.7004767 -4.95556848 8.7004767 -8 7 C-8 6.01 -8 5.02 -8 4 C-8.99 3.67 -9.98 3.34 -11 3 C-10.01 2.67 -9.02 2.34 -8 2 C-7.34 3.32 -6.68 4.64 -6 6 C-1.93975679 3.96197865 -1.93975679 3.96197865 0 0 Z " fill="#E9CF6D" transform="translate(128,96)"/>
<path d="M0 0 C3.3 0.33 6.6 0.66 10 1 C9.67 2.65 9.34 4.3 9 6 C6.03 6 3.06 6 0 6 C-1 2 -1 2 0 0 Z " fill="#E5D061" transform="translate(7,87)"/>
<path d="M0 0 C0.33 0 0.66 0 1 0 C1 4.62 1 9.24 1 14 C1.66 14 2.32 14 3 14 C3.33 17.3 3.66 20.6 4 24 C5.32 23.34 6.64 22.68 8 22 C7.34 23.32 6.68 24.64 6 26 C4.68 25.67 3.36 25.34 2 25 C0.0830427 19.37742839 -0.24889924 14.47630615 -0.125 8.5625 C-0.11597656 7.73556641 -0.10695312 6.90863281 -0.09765625 6.05664062 C-0.07431512 4.03763292 -0.03845288 2.01877644 0 0 Z " fill="#E0D17C" transform="translate(42,82)"/>
<path d="M0 0 C0 0.66 0 1.32 0 2 C-1.98 2 -3.96 2 -6 2 C-6.66 3.32 -7.32 4.64 -8 6 C-10.31 6 -12.62 6 -15 6 C-15.66 7.32 -16.32 8.64 -17 10 C-18.32 9.67 -19.64 9.34 -21 9 C-14.43094946 4.30130413 -8.34462413 0 0 0 Z " fill="#E7D57D" transform="translate(80,43)"/>
<path d="M0 0 C3.3 0 6.6 0 10 0 C10.33 1.32 10.66 2.64 11 4 C7.52674819 5.1577506 4.63932552 5.06866652 1 5 C0.67 3.35 0.34 1.7 0 0 Z " fill="#EAD25B" transform="translate(164,88)"/>
<path d="M0 0 C2.475 0.495 2.475 0.495 5 1 C5 3.97 5 6.94 5 10 C3.35 10 1.7 10 0 10 C0 6.7 0 3.4 0 0 Z " fill="#E7D060" transform="translate(88,6)"/>
<path d="M0 0 C1.2065625 0.0309375 1.2065625 0.0309375 2.4375 0.0625 C1.16070197 3.89289408 -0.15685626 4.05007415 -3.5625 6.0625 C-5.24912458 7.70896685 -6.91761706 9.37433067 -8.5625 11.0625 C-9.5525 11.7225 -10.5425 12.3825 -11.5625 13.0625 C-10.96562566 9.72000371 -9.82646123 7.59813658 -7.5625 5.0625 C-6.9025 5.0625 -6.2425 5.0625 -5.5625 5.0625 C-5.253125 4.423125 -4.94375 3.78375 -4.625 3.125 C-3.05351796 0.07447605 -3.05351796 0.07447605 0 0 Z " fill="#E4D27E" transform="translate(61.5625,90.9375)"/>
<path d="M0 0 C2.64 0.33 5.28 0.66 8 1 C8 1.66 8 2.32 8 3 C9.258125 3.268125 10.51625 3.53625 11.8125 3.8125 C14.96361572 4.59888463 17.1202354 5.1803531 19 8 C19 8.66 19 9.32 19 10 C19.99 10.33 20.98 10.66 22 11 C21.01 11.495 21.01 11.495 20 12 C19.34 11.67 18.68 11.34 18 11 C18 10.34 18 9.68 18 9 C17.175 8.7525 16.35 8.505 15.5 8.25 C11.47626529 6.81295189 7.78020976 4.97645485 4 3 C4 2.34 4 1.68 4 1 C2.68 0.67 1.36 0.34 0 0 Z " fill="#E8DFB7" transform="translate(96,88)"/>
<path d="M0 0 C1.2065625 0.0309375 1.2065625 0.0309375 2.4375 0.0625 C2.685 0.68125 2.9325 1.3 3.1875 1.9375 C4.64378639 4.41318687 5.81562506 5.01375002 8.4375 6.0625 C8.4375 8.0425 8.4375 10.0225 8.4375 12.0625 C6.625 12.75 6.625 12.75 4.4375 13.0625 C2.6875 11.625 2.6875 11.625 1.4375 10.0625 C4.4075 10.5575 4.4075 10.5575 7.4375 11.0625 C6.26346494 7.72101561 5.28315166 5.25146282 2.4375 3.0625 C0.33417109 2.34802357 0.33417109 2.34802357 -1.5625 2.0625 C-1.8925 3.3825 -2.2225 4.7025 -2.5625 6.0625 C-2.8925 6.0625 -3.2225 6.0625 -3.5625 6.0625 C-3.605221 4.39638095 -3.60313832 2.72867115 -3.5625 1.0625 C-2.5625 0.0625 -2.5625 0.0625 0 0 Z " fill="#E5D483" transform="translate(31.5625,27.9375)"/>
<path d="M0 0 C0.99 0 1.98 0 3 0 C2.40072174 3.35595828 1.15377564 5.37801226 -1 8 C-2.32 7.67 -3.64 7.34 -5 7 C-4.67 5.35 -4.34 3.7 -4 2 C-3.01 2 -2.02 2 -1 2 C-0.67 1.34 -0.34 0.68 0 0 Z " fill="#E9D551" transform="translate(147,31)"/>
<path d="M0 0 C1 2 1 2 0.375 3.9375 C-1 6 -1 6 -3.3125 7.375 C-6.74689676 9.451612 -8.54362295 11.84180093 -11 15 C-11.66 14.67 -12.32 14.34 -13 14 C-13 13.34 -13 12.68 -13 12 C-12.4225 11.773125 -11.845 11.54625 -11.25 11.3125 C-8.40408619 9.65238361 -7.00158079 7.60812043 -5 5 C-3.35216394 3.31471312 -1.68997323 1.64302953 0 0 Z " fill="#E6DDB4" transform="translate(58,96)"/>
<path d="M0 0 C0.93779297 0.00322266 1.87558594 0.00644531 2.84179688 0.00976562 C4.30649414 0.02233398 4.30649414 0.02233398 5.80078125 0.03515625 C7.28288086 0.04192383 7.28288086 0.04192383 8.79492188 0.04882812 C11.23443599 0.06061322 13.67382814 0.07706614 16.11328125 0.09765625 C16.11328125 0.42765625 16.11328125 0.75765625 16.11328125 1.09765625 C14.52 1.18853516 14.52 1.18853516 12.89453125 1.28125 C2.47613022 1.89035863 2.47613022 1.89035863 -7.88671875 3.09765625 C-7.88671875 2.43765625 -7.88671875 1.77765625 -7.88671875 1.09765625 C-4.94539984 0.11721661 -3.0617021 -0.01855577 0 0 Z " fill="#E3CF6D" transform="translate(79.88671875,84.90234375)"/>
<path d="M0 0 C2.75006608 -0.0270203 5.49986546 -0.04684883 8.25 -0.0625 C9.02730469 -0.07087891 9.80460937 -0.07925781 10.60546875 -0.08789062 C11.73662109 -0.09272461 11.73662109 -0.09272461 12.890625 -0.09765625 C13.92751465 -0.10551147 13.92751465 -0.10551147 14.98535156 -0.11352539 C17.16189693 0.00912289 18.95530685 0.22840203 21 1 C21.33 1.99 21.66 2.98 22 4 C17.125 3.125 17.125 3.125 16 2 C13.13732433 1.92674832 10.299281 1.90761795 7.4375 1.9375 C6.63119141 1.94201172 5.82488281 1.94652344 4.99414062 1.95117188 C2.99606244 1.96299482 0.99802217 1.98093086 -1 2 C-0.67 1.34 -0.34 0.68 0 0 Z " fill="#E5DED4" transform="translate(79,88)"/>
<path d="M0 0 C1.98 0.495 1.98 0.495 4 1 C4.33 2.65 4.66 4.3 5 6 C2.03 5.505 2.03 5.505 -1 5 C-0.67 3.35 -0.34 1.7 0 0 Z " fill="#ECD152" transform="translate(34,33)"/>
<path d="M0 0 C4.875 0.875 4.875 0.875 6 2 C6.47058824 7.41176471 6.47058824 7.41176471 4.5 9.875 C3.7575 10.431875 3.7575 10.431875 3 11 C2.34 10.67 1.68 10.34 1 10 C1.66 9.34 2.32 8.68 3 8 C3.64767793 5.42938689 3.64767793 5.42938689 4 3 C2.68 2.67 1.36 2.34 0 2 C0 1.34 0 0.68 0 0 Z " fill="#FCF8D0" transform="translate(148,26)"/>
<path d="M0 0 C-2.42182607 3.6327391 -3.50445117 3.68131947 -7.625 4.6875 C-8.62789062 4.93886719 -9.63078125 5.19023438 -10.6640625 5.44921875 C-11.43492188 5.63097656 -12.20578125 5.81273438 -13 6 C-12 4 -12 4 -9 3 C-8.67 2.34 -8.34 1.68 -8 1 C-3.6 -1.2 -3.6 -1.2 0 0 Z " fill="#E8DEAC" transform="translate(72,90)"/>
<path d="M0 0 C-2.54456151 2.96865509 -5.48994665 4.3619751 -9 6 C-9 5.01 -9 4.02 -9 3 C-8.34 2.67 -7.68 2.34 -7 2 C-7 1.34 -7 0.68 -7 0 C-3.86650268 -1.04449911 -3.01031744 -0.93423645 0 0 Z " fill="#FDFAE3" transform="translate(71,44)"/>
<path d="M0 0 C1.32 0 2.64 0 4 0 C4 0.99 4 1.98 4 3 C4.99 3.33 5.98 3.66 7 4 C7.33 5.98 7.66 7.96 8 10 C7.01 10.495 7.01 10.495 6 11 C5.7525 10.0925 5.505 9.185 5.25 8.25 C3.95551476 4.88433837 2.63859364 3.37473427 0 1 C0 0.67 0 0.34 0 0 Z " fill="#FCF5CB" transform="translate(34,28)"/>
<path d="M0 0 C1.65 0 3.3 0 5 0 C5 0.66 5 1.32 5 2 C5.99 2 6.98 2 8 2 C8.66 3.98 9.32 5.96 10 8 C8.51714758 7.04737966 7.03881799 6.08771595 5.5625 5.125 C4.73878906 4.59132813 3.91507812 4.05765625 3.06640625 3.5078125 C1 2 1 2 0 0 Z " fill="#FBF4CF" transform="translate(115,48)"/>
<path d="M0 0 C0.33 0 0.66 0 1 0 C1 2.97 1 5.94 1 9 C2.65 9 4.3 9 6 9 C5.67 9.99 5.34 10.98 5 12 C3.35 11.67 1.7 11.34 0 11 C0 7.37 0 3.74 0 0 Z " fill="#E0D37A" transform="translate(87,7)"/>
<path d="M0 0 C1.32 0 2.64 0 4 0 C4.33 1.65 4.66 3.3 5 5 C4.01 5.33 3.02 5.66 2 6 C1.34 5.67 0.68 5.34 0 5 C0 3.35 0 1.7 0 0 Z " fill="#DBE4CE" transform="translate(115,104)"/>
<path d="M0 0 C1.2065625 0.0309375 1.2065625 0.0309375 2.4375 0.0625 C1.4375 3.0625 1.4375 3.0625 -0.4375 4.25 C-2.5625 5.0625 -2.5625 5.0625 -5.5625 5.0625 C-3.15007962 0.07683121 -3.15007962 0.07683121 0 0 Z " fill="#E3D26C" transform="translate(61.5625,90.9375)"/>
<path d="M0 0 C0 3.67718093 -0.82184858 5.07076189 -3 8 C-5.6875 9.3125 -5.6875 9.3125 -8 10 C-5.83735988 6.01618925 -3.28788824 3.11016455 0 0 Z " fill="#E5D47D" transform="translate(58,53)"/>
<path d="M0 0 C0.66 0 1.32 0 2 0 C2 2.64 2 5.28 2 8 C1.01 8.33 0.02 8.66 -1 9 C-0.67 6.03 -0.34 3.06 0 0 Z " fill="#FCF4C8" transform="translate(137,100)"/>
<path d="M0 0 C0.33 0 0.66 0 1 0 C1 2.31 1 4.62 1 7 C-1.83556587 8.41778293 -3.9908706 7.86257622 -7.125 7.5625 C-8.22070312 7.46066406 -9.31640625 7.35882813 -10.4453125 7.25390625 C-11.28835937 7.17011719 -12.13140625 7.08632812 -13 7 C-13 6.67 -13 6.34 -13 6 C-7.06 5.505 -7.06 5.505 -1 5 C-0.67 3.35 -0.34 1.7 0 0 Z " fill="#FCF6D8" transform="translate(176,88)"/>
<path d="M0 0 C3.53600465 1.91135386 5.78972846 3.62642766 8 7 C7.67 7.66 7.34 8.32 7 9 C5.82460004 8.07347299 4.65989423 7.13336613 3.5 6.1875 C2.52546875 5.40439453 2.52546875 5.40439453 1.53125 4.60546875 C0 3 0 3 0 0 Z " fill="#E6D77F" transform="translate(123,55)"/>
<path d="M0 0 C2.31 0 4.62 0 7 0 C7 0.99 7 1.98 7 3 C4.69 3 2.38 3 0 3 C0 2.01 0 1.02 0 0 Z " fill="#EED14C" transform="translate(8,88)"/>
<path d="M0 0 C0 0.66 0 1.32 0 2 C-0.66 2 -1.32 2 -2 2 C-2 3.65 -2 5.3 -2 7 C-2.99 7.33 -3.98 7.66 -5 8 C-5.1875 5.125 -5.1875 5.125 -5 2 C-2 0 -2 0 0 0 Z " fill="#FEFAEE" transform="translate(5,86)"/>
<path d="M0 0 C0.99 0.33 1.98 0.66 3 1 C3 3.31 3 5.62 3 8 C2.34 8 1.68 8 1 8 C-0.35439668 5.29120665 -0.06501451 2.99066732 0 0 Z " fill="#EED24C" transform="translate(88,7)"/>
<path d="M0 0 C0.66 0.33 1.32 0.66 2 1 C-0.64 3.64 -3.28 6.28 -6 9 C-6 5.06368636 -4.57142871 3.87394974 -2 1 C-1.34 0.67 -0.68 0.34 0 0 Z " fill="#E7E7E7" transform="translate(16,116)"/>
<path d="M0 0 C2.4375 0.625 2.4375 0.625 5 2 C5.8125 5.125 5.8125 5.125 6 8 C3.33264727 5.51047079 1.44253657 3.36591866 0 0 Z " fill="#FEF9D5" transform="translate(126,56)"/>
<path d="M0 0 C1.98 0 3.96 0 6 0 C6.33 1.65 6.66 3.3 7 5 C6.01 5.33 5.02 5.66 4 6 C4.33 4.35 4.66 2.7 5 1 C3.35 1 1.7 1 0 1 C0 0.67 0 0.34 0 0 Z " fill="#DFD381" transform="translate(12,87)"/>
<path d="M0 0 C2.31 0 4.62 0 7 0 C7 0.99 7 1.98 7 3 C4.69 2.67 2.38 2.34 0 2 C0 1.34 0 0.68 0 0 Z " fill="#EBD348" transform="translate(165,88)"/>
</svg>
